<svg data-v-0dd9719b="" version="1.0" xmlns="http://www.w3.org/2000/svg" xmlns:xlink="http://www.w3.org/1999/xlink" width="100%" height="100%" viewBox="0 0 340.000000 250.000000" preserveAspectRatio="xMidYMid meet" color-interpolation-filters="sRGB" style="margin: auto;">   <g data-v-0dd9719b="" fill="#333" class="iconlettersvg-g iconlettersvg" transform="translate(37.86665344238281,102.5)"><g><g class="tp-name"><g transform="scale(1)"><g transform="translate(0, 0)"><g class="name-imagesvg"><g><rect fill="#333" fill-opacity="0" stroke-width="2" x="0" y="0" width="49.790483843014506" height="45" class="image-rect"></rect> <svg x="0" y="0" width="49.790483843014506" height="45" filtersec="colorsb74382374" class="image-svg-svg primary" style="overflow: visible;"><svg xmlns="http://www.w3.org/2000/svg" viewBox="0 0 130.43 117.89"><path fill="#ffa816" opacity=".8" d="M8.41 44.96L0 92.67l20.61 25.22h47.65L8.41 44.96z"></path><path fill="#8a6bbc" opacity=".8" d="M61.11 80.11h64.08l5.25-29.74H66.36l-5.25 29.74zM127.43 0H41.46L11.82 25.06l-.83 4.69h111.19L127.43 0z"></path><path fill="#00b8ce" opacity=".8" d="M41.46 0L11.82 25.06l-8.4 47.65L89.17 0H41.46z"></path><path fill="#ff4b4c" opacity=".8" d="M93.47 117.89l29.5-25.22 7.46-42.3h-5.39l-79.22 67.52h47.65z"></path></svg></svg> <!----></g></g></g><g transform="translate(49.790483843014506, 0)"><g class="name-imagesvg"><g><rect fill="#333" fill-opacity="0" stroke-width="2" x="0" y="0" width="36.861905240188406" height="45" class="image-rect"></rect> <svg x="0" y="0" width="36.861905240188406" height="45" filtersec="colorsb443353172" class="image-svg-svg primary" style="overflow: visible;"><svg xmlns="http://www.w3.org/2000/svg" viewBox="0 0 96.57 117.89"><path fill="#9fd931" opacity=".8" d="M96.57 0H20.79l-5.25 29.75h75.79L96.57 0z"></path><path fill="#ff4b4c" opacity=".8" d="M81.03 88.14H5.25L0 117.89h75.78l5.25-29.75z"></path><path fill="#ffa816" opacity=".8" d="M77.19 0H42L21.21 117.89H56.4L77.19 0z"></path></svg></svg> <!----></g></g></g><g transform="translate(86.6523890832029, 0)"><g class="name-imagesvg"><g><rect fill="#333" fill-opacity="0" stroke-width="2" x="0" y="0" width="44.896930359509014" height="45" class="image-rect"></rect> <svg x="0" y="0" width="44.896930359509014" height="45" filtersec="colorsb8747634645" class="image-svg-svg primary" style="overflow: visible;"><svg xmlns="http://www.w3.org/2000/svg" viewBox="0 0 117.61 117.88"><path fill="#00b8ce" opacity=".8" d="M0 28h112.67l4.94-28H4.94L0 28z"></path><path fill="#9fd931" opacity=".8" d="M23.86 117.88h33.25L77.9 0H44.65L23.86 117.88z"></path></svg></svg> <!----></g></g></g><g transform="translate(131.54931944271192, 0)"><g class="name-imagesvg"><g><rect fill="#333" fill-opacity="0" stroke-width="2" x="0" y="0" width="49.790483843014506" height="45" class="image-rect"></rect> <svg x="0" y="0" width="49.790483843014506" height="45" filtersec="colorsb3095445726" class="image-svg-svg primary" style="overflow: visible;"><svg xmlns="http://www.w3.org/2000/svg" viewBox="0 0 130.43 117.89"><path fill="#ffa816" opacity=".8" d="M8.41 44.96L0 92.67l20.61 25.22h47.65L8.41 44.96z"></path><path fill="#8a6bbc" opacity=".8" d="M61.11 80.11h64.08l5.25-29.74H66.36l-5.25 29.74zM127.43 0H41.46L11.82 25.06l-.83 4.69h111.19L127.43 0z"></path><path fill="#00b8ce" opacity=".8" d="M41.46 0L11.82 25.06l-8.4 47.65L89.17 0H41.46z"></path><path fill="#ff4b4c" opacity=".8" d="M93.47 117.89l29.5-25.22 7.46-42.3h-5.39l-79.22 67.52h47.65z"></path></svg></svg> <!----></g></g></g><g transform="translate(181.33980328572642, 0)"><g class="name-imagesvg"><g><rect fill="#333" fill-opacity="0" stroke-width="2" x="0" y="0" width="34.47238876221049" height="45" class="image-rect"></rect> <svg x="0" y="0" width="34.47238876221049" height="45" filtersec="colorsb8577220348" class="image-svg-svg primary" style="overflow: visible;"><svg xmlns="http://www.w3.org/2000/svg" viewBox="0 0 90.31 117.89"><path fill="#8a6bbc" opacity=".8" d="M0 117.89h35.19L55.97 0H20.79L0 117.89z"></path><path fill="#00b8ce" opacity=".8" d="M0 117.89h85.07l5.24-29.75H5.25L0 117.89z"></path></svg></svg> <!----></g></g></g><g transform="translate(215.81219204793692, 0)"><g class="name-imagesvg"><g><rect fill="#333" fill-opacity="0" stroke-width="2" x="0" y="0" width="48.45449265788071" height="45" class="image-rect"></rect> <svg x="0" y="0" width="48.45449265788071" height="45" filtersec="colorsb936002392" class="image-svg-svg primary" style="overflow: visible;"><svg xmlns="http://www.w3.org/2000/svg" viewBox="0 0 126.94 117.89"><path fill="#ff4b4c" opacity=".8" d="M126.94 0H20.79l-5.25 29.75h106.15L126.94 0z"></path><path fill="#8a6bbc" opacity=".8" d="M113.01 88.14H5.25L0 117.89h107.77l5.24-29.75z"></path><path fill="#ffa816" opacity=".8" d="M101.15 44.29H12.98l-4.6 26.1h88.16l4.61-26.1z"></path><path fill="#9fd931" opacity=".8" d="M55.97 0H20.79L0 117.89h35.19L55.97 0z"></path></svg></svg> <!----></g></g></g></g></g></g> <!----></g><defs v-gra="od"></defs></svg>